<svg xmlns="http://www.w3.org/2000/svg" viewBox="0 0 920.34 1142.39"><defs><style>.a{fill:#fff;}</style></defs><title>Fichier 1</title><path class="a" d="M243.67,1142.39l.56-.79,397-558.34,2.81-3.94L461.84,324.44,102.5,827.08H258l-38.08,50.73H0l39.9-53.61,203-286.48H79.31L461.84,0l.41.57,381.31,536-163.32.83L904,853.65l16.33,24.23h-.94l-418.2,1.46,192.35,262h-1ZM461.84,322.72l.41.57,183,256-3.22,4.52L245.61,1141.39l446-1-192.35-262h1l418.24-1.46-15.28-22.67L678.32,536.38l163.31-.83L461.84,1.73l-380.6,535H244.83L40.71,824.8,2,876.82H219.38L256,828.08H100.55Zm132.67,770H340.4L466.11,917.46Zm-252.16-1H592.54L466.12,919.16Zm480.78-263.6H530.23l146.7-204.5.41.57Zm-291-1h289L676.93,625.3ZM279.37,488h-98L461.84,93.73l279.9,393.38-97.88.56-182-257L425.9,281.2Zm-96.11-1h95.59L425.09,280.62,461.84,229l.41.57L644.37,486.67l95.44-.54-278-390.67Z"/></svg>